<svg width="2674" height="452" viewBox="0 0 2674 452" fill="none" xmlns="http://www.w3.org/2000/svg">
<path d="M171.65 451.982C138.148 451.982 108.883 446.937 83.8574 436.846C58.8314 426.755 39.0527 412.324 24.5215 393.555C10.1921 374.785 2.11914 352.383 0.302734 326.348L0 321.807H74.4727L75.0781 325.439C77.2982 337.952 82.7474 348.75 91.4258 357.832C100.104 366.914 111.507 373.978 125.635 379.023C139.964 383.867 156.211 386.289 174.375 386.289C192.741 386.289 208.584 383.766 221.904 378.721C235.426 373.675 245.82 366.51 253.086 357.227C260.352 347.741 263.984 336.742 263.984 324.229V323.926C263.984 307.578 257.829 294.661 245.518 285.176C233.408 275.69 213.226 267.92 184.971 261.865L138.047 252.178C95.2604 243.298 63.1706 228.766 41.7773 208.584C20.3841 188.2 9.6875 161.761 9.6875 129.268V128.965C9.88932 103.132 16.8522 80.6283 30.5762 61.4551C44.502 42.0801 63.6751 27.0443 88.0957 16.3477C112.516 5.44922 140.368 0 171.65 0C203.337 0 231.087 5.2474 254.902 15.7422C278.717 26.237 297.386 40.8691 310.908 59.6387C324.632 78.4082 332.201 100.205 333.613 125.029L333.916 130.176H259.443L258.838 126.24C257.021 113.525 252.279 102.728 244.609 93.8477C236.94 84.7656 226.849 77.8027 214.336 72.959C201.823 68.1152 187.393 65.6934 171.045 65.6934C154.092 65.6934 139.359 68.2161 126.846 73.2617C114.535 78.1055 104.948 84.9674 98.0859 93.8477C91.4258 102.728 88.0957 113.021 88.0957 124.727V125.029C88.0957 140.368 94.2513 152.881 106.562 162.568C119.076 172.054 138.451 179.521 164.688 184.971L211.611 194.658C242.087 200.915 266.911 209.391 286.084 220.088C305.257 230.785 319.385 244.206 328.467 260.352C337.751 276.497 342.393 295.872 342.393 318.477V318.779C342.393 345.824 335.531 369.336 321.807 389.316C308.285 409.297 288.708 424.736 263.076 435.635C237.646 446.533 207.171 451.982 171.65 451.982ZM439.873 300.01V237.041H549.766C578.021 237.041 599.818 229.876 615.156 215.547C630.697 201.016 638.467 180.632 638.467 154.395V153.789C638.467 127.35 630.697 106.966 615.156 92.6367C599.818 78.3073 578.021 71.1426 549.766 71.1426H439.873V7.56836H569.141C598.607 7.56836 624.44 13.623 646.641 25.7324C669.043 37.8418 686.501 54.8958 699.014 76.8945C711.527 98.6914 717.783 124.222 717.783 153.486V154.092C717.783 183.154 711.527 208.685 699.014 230.684C686.501 252.48 669.043 269.535 646.641 281.846C624.44 293.955 598.607 300.01 569.141 300.01H439.873ZM400.82 444.414V7.56836H478.926V444.414H400.82ZM706.582 444.414L862.793 7.56836H928.486V85.3711H905.781L788.32 444.414H706.582ZM785.596 331.494L806.484 271.25H1006.59L1027.48 331.494H785.596ZM1024.76 444.414L907.295 85.3711V7.56836H950.586L1106.49 444.414H1024.76ZM1325.98 451.982C1284.2 451.982 1247.87 442.799 1216.99 424.434C1186.32 406.068 1162.6 380.033 1145.85 346.328C1129.3 312.422 1121.03 272.259 1121.03 225.84V225.537C1121.03 179.118 1129.4 139.056 1146.15 105.352C1162.9 71.6471 1186.62 45.7129 1217.29 27.5488C1247.97 9.18294 1284.2 0 1325.98 0C1359.48 0 1389.45 6.45833 1415.89 19.375C1442.53 32.2917 1464.23 50.153 1480.98 72.959C1497.73 95.765 1508.02 122.002 1511.86 151.67L1512.16 154.697H1435.57L1434.05 148.945C1429.81 132.194 1422.85 117.764 1413.16 105.654C1403.48 93.5449 1391.27 84.1602 1376.53 77.5C1361.8 70.8398 1344.95 67.5098 1325.98 67.5098C1300.55 67.5098 1278.45 73.9681 1259.68 86.8848C1240.91 99.8014 1226.38 118.066 1216.08 141.68C1205.79 165.091 1200.64 193.044 1200.64 225.537V225.84C1200.64 258.132 1205.79 286.185 1216.08 310C1226.38 333.613 1240.91 351.979 1259.68 365.098C1278.65 378.014 1300.75 384.473 1325.98 384.473C1344.54 384.473 1361.09 381.243 1375.62 374.785C1390.36 368.125 1402.77 358.538 1412.86 346.025C1422.95 333.512 1430.32 318.275 1434.96 300.312L1435.87 297.285H1512.46L1511.86 300.615C1508.22 330.283 1498.03 356.52 1481.28 379.326C1464.53 402.132 1442.83 419.993 1416.19 432.91C1389.55 445.625 1359.48 451.982 1325.98 451.982ZM1571.8 444.414V7.56836H1854.55V73.2617H1649.9V191.025H1843.35V253.994H1649.9V378.721H1854.55V444.414H1571.8ZM2124.29 444.414V360.254H1906.32V293.955C1918.43 274.984 1930.54 255.911 1942.65 236.738C1954.76 217.565 1966.87 198.493 1978.97 179.521C1991.08 160.348 2003.09 141.276 2015 122.305C2027.11 103.132 2039.22 84.0592 2051.33 65.0879C2063.44 45.9147 2075.55 26.7415 2087.66 7.56836H2198.76V296.68H2257.79V360.254H2198.76V444.414H2124.29ZM1976.55 298.193H2125.5V66.6016H2123.68C2113.79 81.9401 2103.9 97.2786 2094.01 112.617C2084.33 127.754 2074.54 142.992 2064.65 158.33C2054.96 173.669 2045.17 189.007 2035.28 204.346C2025.39 219.684 2015.5 235.023 2005.62 250.361C1995.93 265.498 1986.24 280.736 1976.55 296.074V298.193ZM2493.93 451.982C2456.99 451.982 2425.1 445.221 2398.26 431.699C2371.42 418.177 2350.63 399.307 2335.9 375.088C2321.37 350.869 2314.1 322.614 2314.1 290.322V7.56836H2392.21V283.965C2392.21 304.147 2396.14 321.807 2404.01 336.943C2412.09 351.878 2423.69 363.584 2438.83 372.061C2453.96 380.335 2472.33 384.473 2493.93 384.473C2515.52 384.473 2533.89 380.335 2549.02 372.061C2564.16 363.584 2575.66 351.878 2583.54 336.943C2591.41 321.807 2595.34 304.147 2595.34 283.965V7.56836H2673.14V290.322C2673.14 322.412 2665.88 350.667 2651.35 375.088C2637.02 399.307 2616.43 418.177 2589.59 431.699C2562.75 445.221 2530.86 451.982 2493.93 451.982Z" fill="url(#paint0_linear_1_4)"/>
<defs>
<linearGradient id="paint0_linear_1_4" x1="-20.2832" y1="174.414" x2="1863.23" y2="941.214" gradientUnits="userSpaceOnUse">
<stop stop-color="white"/>
<stop offset="1" stop-color="#858585" stop-opacity="0.76"/>
</linearGradient>
</defs>
</svg>
