<svg width="2660" height="588" viewBox="0 0 2660 588" fill="none" xmlns="http://www.w3.org/2000/svg">
<path d="M191.6 576V78.8H5.66244e-07V-2.28882e-05H466.8V78.8H275.2V576H191.6ZM618.35 588C575.417 588 537.683 578.667 505.15 560C472.883 541.067 447.683 514.8 429.55 481.2C411.683 447.333 402.75 408.133 402.75 363.6C402.75 316.4 411.55 275.467 429.15 240.8C447.017 206.133 471.817 179.333 503.55 160.4C535.283 141.467 572.217 132 614.35 132C658.35 132 695.817 142.267 726.75 162.8C757.683 183.067 780.75 212 795.95 249.6C811.417 287.2 817.55 331.867 814.35 383.6H730.75V353.2C730.217 303.067 720.617 266 701.95 242C683.55 218 655.417 206 617.55 206C575.683 206 544.217 219.2 523.15 245.6C502.083 272 491.55 310.133 491.55 360C491.55 407.467 502.083 444.267 523.15 470.4C544.217 496.267 574.617 509.2 614.35 509.2C640.483 509.2 663.017 503.333 681.95 491.6C701.15 479.6 716.083 462.533 726.75 440.4L808.75 466.4C791.95 505.067 766.483 535.067 732.35 556.4C698.217 577.467 660.217 588 618.35 588ZM464.35 383.6V318.4H772.75V383.6H464.35ZM864.094 576V144H938.494V248.8L928.094 235.2C933.427 221.333 940.36 208.667 948.894 197.2C957.427 185.467 967.294 175.867 978.494 168.4C989.427 160.4 1001.56 154.267 1014.89 150C1028.49 145.467 1042.36 142.8 1056.49 142C1070.63 140.933 1084.23 141.6 1097.29 144V222.4C1083.16 218.667 1067.43 217.6 1050.09 219.2C1033.03 220.8 1017.29 226.267 1002.89 235.6C989.294 244.4 978.494 255.067 970.494 267.6C962.76 280.133 957.16 294.133 953.694 309.6C950.227 324.8 948.494 340.933 948.494 358V576H864.094ZM1133.47 576V144H1207.87V248.8L1197.47 235.2C1202.8 221.333 1209.74 208.667 1218.27 197.2C1226.8 185.467 1236.67 175.867 1247.87 168.4C1258.8 160.4 1270.94 154.267 1284.27 150C1297.87 145.467 1311.74 142.8 1325.87 142C1340 140.933 1353.6 141.6 1366.67 144V222.4C1352.54 218.667 1336.8 217.6 1319.47 219.2C1302.4 220.8 1286.67 226.267 1272.27 235.6C1258.67 244.4 1247.87 255.067 1239.87 267.6C1232.14 280.133 1226.54 294.133 1223.07 309.6C1219.6 324.8 1217.87 340.933 1217.87 358V576H1133.47ZM1586.63 588C1543.7 588 1505.96 578.667 1473.43 560C1441.16 541.067 1415.96 514.8 1397.83 481.2C1379.96 447.333 1371.03 408.133 1371.03 363.6C1371.03 316.4 1379.83 275.467 1397.43 240.8C1415.3 206.133 1440.1 179.333 1471.83 160.4C1503.56 141.467 1540.5 132 1582.63 132C1626.63 132 1664.1 142.267 1695.03 162.8C1725.96 183.067 1749.03 212 1764.23 249.6C1779.7 287.2 1785.83 331.867 1782.63 383.6H1699.03V353.2C1698.5 303.067 1688.9 266 1670.23 242C1651.83 218 1623.7 206 1585.83 206C1543.96 206 1512.5 219.2 1491.43 245.6C1470.36 272 1459.83 310.133 1459.83 360C1459.83 407.467 1470.36 444.267 1491.43 470.4C1512.5 496.267 1542.9 509.2 1582.63 509.2C1608.76 509.2 1631.3 503.333 1650.23 491.6C1669.43 479.6 1684.36 462.533 1695.03 440.4L1777.03 466.4C1760.23 505.067 1734.76 535.067 1700.63 556.4C1666.5 577.467 1628.5 588 1586.63 588ZM1432.63 383.6V318.4H1741.03V383.6H1432.63ZM2123.86 576V363.6C2123.86 346.8 2122.39 329.6 2119.46 312C2116.79 294.133 2111.46 277.6 2103.46 262.4C2095.72 247.2 2084.66 234.933 2070.26 225.6C2056.12 216.267 2037.59 211.6 2014.66 211.6C1999.72 211.6 1985.59 214.133 1972.26 219.2C1958.92 224 1947.19 231.867 1937.06 242.8C1927.19 253.733 1919.32 268.133 1913.46 286C1907.86 303.867 1905.06 325.6 1905.06 351.2L1853.06 331.6C1853.06 292.4 1860.39 257.867 1875.06 228C1889.72 197.867 1910.79 174.4 1938.26 157.6C1965.72 140.8 1998.92 132.4 2037.86 132.4C2067.72 132.4 2092.79 137.2 2113.06 146.8C2133.32 156.4 2149.72 169.067 2162.26 184.8C2175.06 200.267 2184.79 217.2 2191.46 235.6C2198.12 254 2202.66 272 2205.06 289.6C2207.46 307.2 2208.66 322.667 2208.66 336V576H2123.86ZM1820.26 576V144H1895.06V268.8H1905.06V576H1820.26ZM2458.98 588C2416.04 588 2378.31 578.667 2345.78 560C2313.51 541.067 2288.31 514.8 2270.17 481.2C2252.31 447.333 2243.38 408.133 2243.38 363.6C2243.38 316.4 2252.18 275.467 2269.78 240.8C2287.64 206.133 2312.44 179.333 2344.18 160.4C2375.91 141.467 2412.84 132 2454.98 132C2498.98 132 2536.44 142.267 2567.38 162.8C2598.31 183.067 2621.38 212 2636.58 249.6C2652.04 287.2 2658.18 331.867 2654.98 383.6H2571.38V353.2C2570.84 303.067 2561.24 266 2542.58 242C2524.18 218 2496.04 206 2458.18 206C2416.31 206 2384.84 219.2 2363.78 245.6C2342.71 272 2332.18 310.133 2332.18 360C2332.18 407.467 2342.71 444.267 2363.78 470.4C2384.84 496.267 2415.24 509.2 2454.98 509.2C2481.11 509.2 2503.64 503.333 2522.58 491.6C2541.78 479.6 2556.71 462.533 2567.38 440.4L2649.38 466.4C2632.58 505.067 2607.11 535.067 2572.98 556.4C2538.84 577.467 2500.84 588 2458.98 588ZM2304.98 383.6V318.4H2613.37V383.6H2304.98Z" fill="url(#paint0_linear_2004_2)"/>
<defs>
<linearGradient id="paint0_linear_2004_2" x1="1593" y1="5.91281e-07" x2="1587.97" y2="712.251" gradientUnits="userSpaceOnUse">
<stop stop-color="#F2EDE6"/>
<stop offset="1" stop-color="#1F1D1D"/>
</linearGradient>
</defs>
</svg>
